<?xml version="1.0" encoding="UTF-8" standalone="no"?>
<!-- Created with Inkscape (http://www.inkscape.org/) -->

<svg
   width="98.328445mm"
   height="98.328445mm"
   viewBox="0 0 98.328445 98.328445"
   version="1.1"
   id="svg1"
   xmlns="http://www.w3.org/2000/svg"
   xmlns:svg="http://www.w3.org/2000/svg">
  <defs
     id="defs1" />
  <g
     id="layer1"
     transform="translate(-26.575106,-137.20457)">
    <g
       id="g13"
       transform="translate(-26.445205,-46.78767)"
       style="stroke-width:1.4;stroke-dasharray:none">
      <circle
         style="fill:#000000;stroke:#000000;stroke-width:1.4;stroke-dasharray:none"
         id="path2-2-7-3-9"
         cx="102.51028"
         cy="233.27876"
         r="47.214222" />
      <path
         id="path12"
         style="fill:#445500;stroke:none;stroke-width:1.4;stroke-dasharray:none"
         d="m 101.99687,186.33695 a 48.618664,44.942631 0 0 0 -48.618216,44.9427 48.618664,44.942631 0 0 0 11.080977,28.45003 h 25.616524 v 18.63623 h 25.834595 v -18.63623 h 23.62337 a 48.618664,44.942631 0 0 0 11.08097,-28.45003 48.618664,44.942631 0 0 0 -48.61822,-44.9427 z" />
      <path
         id="path1-0-9"
         style="fill:#668000;stroke-width:1.4;stroke-dasharray:none"
         d="M 102.76789,194.8 A 36.616417,31.175677 0 0 0 66.151001,225.97535 36.616417,31.175677 0 0 0 95.49908,256.4629 v 22.97379 a 47.214222,47.214222 0 0 0 7.1546,0.57516 47.214222,47.214222 0 0 0 7.93078,-0.74414 V 256.3704 A 36.616417,31.175677 0 0 0 139.38374,225.97535 36.616417,31.175677 0 0 0 102.76789,194.8 Z" />
      <path
         id="path1-0-9-2"
         style="fill:#88aa00;stroke-width:1.4;stroke-dasharray:none"
         d="m 102.75742,203.2719 a 21.257891,26.308883 0 0 0 -21.25814,26.30881 21.257891,26.308883 0 0 0 17.03832,25.72803 v 23.84049 h 8.758 v -23.91866 a 21.257891,26.308883 0 0 0 16.71957,-25.64986 21.257891,26.308883 0 0 0 -21.25775,-26.30881 z" />
      <path
         id="path1-0-9-2-1"
         style="fill:#e5ff80;stroke-width:1.4;stroke-dasharray:none"
         d="m 102.68079,214.46155 a 8.137031,22.429554 0 0 0 -8.137126,22.42949 8.137031,22.429554 0 0 0 6.521886,21.93434 v 20.32514 h 3.35236 v -20.39177 a 8.137031,22.429554 0 0 0 6.39985,-21.86771 8.137031,22.429554 0 0 0 -8.13697,-22.42949 z" />
      <circle
         style="fill:none;stroke:#000000;stroke-width:3.9;stroke-dasharray:none"
         id="path2-2-7-3"
         cx="102.18453"
         cy="233.15645"
         r="47.214222" />
    </g>
  </g>
</svg>
